<svg width="16" height="16" viewBox="0 0 16 16" fill="none" xmlns="http://www.w3.org/2000/svg">
<path d="M0 0H16V16H0V0Z" fill="#833FDC"/>
<path d="M7.37192 5.35467H11.5624C11.5624 5.35467 11.5298 6.60201 10.1134 6.60201H7.44427C6.99122 6.60201 6.99122 7.34615 7.44427 7.34615H9.95026C12.1001 7.34615 12.1001 10.6328 9.95026 10.6328H5.5214C4.61292 10.6446 3.94848 10.5997 3.58906 10.5192C3.56778 10.5145 3.56825 10.4842 3.58953 10.4799C4.1821 10.3649 5.19934 10.3469 6.22179 10.3582C6.77794 10.3753 7.29909 10.363 7.57858 10.2797C7.59797 10.274 7.5975 10.247 7.57811 10.2413C7.34922 10.1755 6.87536 10.1476 6.37265 10.1334C7.0125 10.1206 7.6656 10.1021 7.96496 10.0231C7.98482 10.0179 7.98482 9.989 7.96496 9.98427C7.67033 9.91042 7.14539 9.89007 6.62944 9.87823C5.9229 9.88155 5.24474 9.85883 4.85742 9.76604C4.83661 9.76084 4.83709 9.73101 4.85837 9.72628C5.2471 9.64344 5.83305 9.60368 6.46061 9.60557C6.46061 9.60557 6.70558 9.46119 7.18228 9.46119H9.71002C9.71002 9.46119 10.0888 9.42285 10.0888 9.01953C10.5017 9.0219 10.9387 9.0058 11.1959 8.94332C11.2163 8.93811 11.2163 8.90876 11.1959 8.90403C10.8881 8.83208 10.3461 8.82924 9.84622 8.83728C9.17941 8.83586 8.523 8.84344 8.17824 8.76438C8.15743 8.75965 8.1579 8.72983 8.17824 8.72509C8.37923 8.67965 8.79398 8.66734 9.16806 8.65929H7.11087C7.11087 8.65929 6.51405 8.6948 5.98722 7.9942C7.29436 8.00367 8.58684 8.00272 9.0678 7.87681C9.08766 7.8716 9.08813 7.8432 9.06827 7.83752C8.79256 7.76036 8.25958 7.73574 7.71195 7.72675L5.79569 7.73906C5.11043 7.73385 4.53253 7.69598 4.10123 7.61503C4.07947 7.61077 4.07947 7.58 4.10123 7.57574C4.54009 7.48817 5.11327 7.45834 5.74414 7.45266C5.74414 7.45266 5.68219 7.34426 5.68313 7.15396C5.44857 7.15207 5.20974 7.10757 4.96808 7.03089C4.94917 7.02473 4.94917 6.9987 4.96761 6.99207C5.20502 6.91112 5.44526 6.87515 5.68739 6.88556C5.74792 6.4742 5.89547 6.22946 6.10119 5.93076C5.2594 5.91751 4.53631 5.88248 4.13386 5.81195C4.11163 5.80816 4.11163 5.77644 4.13386 5.77218C4.82243 5.64485 5.58571 5.6207 6.34616 5.64295L7.33881 5.64011C8.20662 5.6349 8.95004 5.60035 9.32128 5.51514C9.34209 5.51041 9.34256 5.48106 9.32223 5.47585C8.99922 5.39443 8.1825 5.37124 7.37192 5.35467Z" fill="white"/>
</svg>
