<svg width="211" height="35" viewBox="0 0 211 35" fill="none" xmlns="http://www.w3.org/2000/svg">
<path d="M0 24.5614L2.65352 19.5046C3.98029 20.7688 5.98836 21.9608 8.13987 21.9608C9.39491 21.9608 10.1479 21.5635 10.5424 21.13C10.901 20.7688 11.152 20.227 11.152 19.613C11.152 19.1434 10.9727 18.6017 10.4707 18.1682C9.86107 17.6264 8.92875 17.3736 7.38684 16.904L5.77321 16.3983C4.76917 16.0733 3.29898 15.5315 2.3308 14.4479C1.11161 13.1115 0.968178 11.4138 0.968178 10.1858C0.968178 7.22394 2.11565 5.41796 3.15554 4.37048C4.37473 3.14241 6.3828 2.09494 9.28734 2.09494C11.654 2.09494 14.4151 2.85346 16.6742 4.04541L14.1999 8.92157C12.3353 7.44066 10.9368 7.29618 10.1121 7.29618C9.50249 7.29618 8.67774 7.44066 8.06815 8.01858C7.70956 8.37977 7.45856 8.77709 7.45856 9.31888C7.45856 9.75232 7.53027 10.0774 7.78128 10.4025C7.96057 10.6192 8.39087 11.0526 9.86107 11.4861L11.7616 12.064C13.2676 12.5335 14.8454 13.0753 16.1004 14.4479C17.3196 15.7482 17.6424 17.0846 17.6424 18.7461C17.6424 20.9494 17.1045 23.0805 15.3833 24.8142C13.3393 26.8731 10.8651 27.2704 8.31916 27.2704C6.8131 27.2704 5.37877 27.1259 3.6217 26.4757C3.22726 26.3313 1.72121 25.7534 0 24.5614Z" fill="#2A2B30"/>
<path d="M26.7608 25.1754V35H21.0234V10.5831H26.7608V12.3529C27.7648 11.0887 29.3067 10.0413 31.6734 10.0413C34.1476 10.0413 36.084 11.0887 37.3749 12.3891C38.7016 13.7255 39.8132 15.8566 39.8132 18.6378C39.8132 21.3467 38.7733 23.5139 37.2314 25.031C35.4385 26.8008 33.3587 27.2704 31.7451 27.2704C30.7052 27.2704 28.5537 27.0537 26.7608 25.1754ZM30.2749 14.9536C29.3067 14.9536 28.3744 15.3509 27.6931 16.0372C26.9759 16.7595 26.5815 17.807 26.5815 18.71C26.5815 19.6491 27.0835 20.6605 27.6931 21.2745C28.3744 21.9608 29.3067 22.3581 30.2749 22.3581C31.2789 22.3581 32.1754 21.9608 32.8208 21.2745C33.4304 20.6605 33.9324 19.6852 33.9324 18.71C33.9324 17.807 33.538 16.7595 32.8208 16.0372C32.1754 15.3509 31.2789 14.9536 30.2749 14.9536Z" fill="#2A2B30"/>
<path d="M52.1202 14.9536C51.1879 14.9536 50.1839 15.387 49.5384 16.001C48.8213 16.6873 48.4268 17.6987 48.4268 18.6378C48.4268 19.613 48.893 20.5521 49.5384 21.2023C50.2197 21.8885 51.1521 22.2859 52.1202 22.2859C53.0526 22.2859 53.9849 21.8885 54.6662 21.2023C55.3834 20.516 55.7778 19.5769 55.7778 18.6378C55.7778 17.7709 55.3834 16.7234 54.6662 16.001C54.0207 15.387 53.0167 14.9536 52.1202 14.9536ZM61.7303 18.6378C61.7303 20.805 61.0131 22.8638 59.2561 24.5975C57.1404 26.6925 54.6662 27.2704 52.0844 27.2704C49.7536 27.2704 47.1718 26.8008 44.9486 24.5975C43.1915 22.8638 42.4743 20.805 42.4743 18.6378C42.4743 15.7482 43.7652 13.87 44.9486 12.7141C46.2753 11.4138 48.6061 10.0413 52.0844 10.0413C55.6344 10.0413 57.9293 11.4499 59.2561 12.7141C60.4394 13.87 61.7303 15.7482 61.7303 18.6378Z" fill="#2A2B30"/>
<path d="M65.041 26.7286V10.5831H70.7784V13.2198C71.3521 12.1362 72.1769 11.4138 73.0375 10.9804C73.8981 10.5108 74.938 10.3302 76.0137 10.3302C76.1572 10.3302 76.4082 10.3664 77.1612 10.4025V15.8566C76.8743 15.7121 76.0854 15.2786 74.687 15.2786C73.9339 15.2786 72.894 15.387 72.0693 16.1455C70.8501 17.2652 70.7784 18.9628 70.7784 19.8297V26.7286H65.041Z" fill="#2A2B30"/>
<path d="M89.8489 15.3148H86.5858V26.7286H80.8484V15.3148H79.0197V10.5831H80.8484V5.27348H86.5858V10.5831H89.8489V15.3148Z" fill="#2A2B30"/>
<path d="M93.3098 35L98.6886 24.5253L90.9432 10.5831H97.6128L101.88 18.8545L106.04 10.5831H112.602L99.7285 35H93.3098Z" fill="#2A2B30"/>
<path d="M124.74 15.3148H120.724V26.7286H114.987V15.3148H112.979V10.5831H114.987V8.59649C114.987 6.42931 115.274 4.11765 117.174 2.27554C118.716 0.758513 121.083 0 123.485 0C125.744 0 128.398 0.686274 129.904 2.16718C130.908 3.14241 131.912 4.91228 131.912 7.58514V8.41589H126.175V7.8741C126.175 7.72962 126.175 6.42931 125.457 5.70691C124.991 5.23736 124.202 4.98452 123.449 4.98452C122.732 4.98452 121.979 5.27348 121.477 5.81527C120.796 6.53767 120.724 7.40454 120.724 8.30753V10.5831H124.74V15.3148ZM126.175 10.5831H131.912V26.7286H126.175V10.5831Z" fill="#2A2B30"/>
<path d="M135.497 26.7286V10.5831H141.235V12.6058C142.812 10.5108 144.928 10.2219 146.327 10.2219C147.976 10.2219 149.733 10.6192 151.06 11.9556C152.422 13.3282 152.566 14.7007 152.566 16.4706V26.7286H146.829V18.5655C146.829 17.6264 146.864 16.2177 146.111 15.4231C145.574 14.8452 144.856 14.7368 144.283 14.7368C143.386 14.7368 142.633 15.0619 142.167 15.4954C141.593 16.0372 141.235 17.0846 141.235 18.0599V26.7286H135.497Z" fill="#2A2B30"/>
<path d="M174.617 0.397316V26.7286H168.88V24.9587C167.266 27.0537 165.151 27.2704 164.039 27.2704C161.744 27.2704 159.915 26.5119 158.409 25.031C156.796 23.4417 155.828 21.1661 155.828 18.6017C155.828 15.8566 156.975 13.6171 158.445 12.2085C160.023 10.6914 162.139 10.0413 164.111 10.0413C166.298 10.0413 167.84 11.0165 168.88 12.1362V0.397316H174.617ZM165.366 22.3581C166.298 22.3581 167.231 21.9247 167.84 21.3829C168.593 20.6966 169.059 19.613 169.059 18.6378C169.059 17.7348 168.557 16.6512 167.984 16.0372C167.338 15.3509 166.442 14.9536 165.366 14.9536C164.147 14.9536 163.322 15.4954 162.82 16.001C162.175 16.6512 161.708 17.6625 161.708 18.7461C161.708 19.5769 162.067 20.516 162.82 21.2745C163.609 22.0691 164.541 22.3581 165.366 22.3581Z" fill="#2A2B30"/>
<path d="M195.566 19.1073V19.7214H183.625C183.625 20.5882 183.948 21.7441 184.629 22.4303C184.988 22.7915 185.705 23.225 186.996 23.225C187.14 23.225 188.144 23.1889 188.861 22.7915C189.219 22.5748 189.614 22.2136 189.865 21.7079H195.351C195.1 22.6109 194.598 23.8751 193.415 25.031C192.231 26.1868 190.367 27.2704 186.889 27.2704C184.773 27.2704 182.227 26.8008 180.255 24.8142C179.215 23.7668 177.888 21.7802 177.888 18.71C177.888 16.001 178.892 13.8338 180.291 12.4613C181.617 11.161 183.697 10.1135 186.853 10.1135C188.717 10.1135 191.12 10.5108 193.02 12.3168C195.279 14.484 195.566 17.3013 195.566 19.1073ZM183.805 16.3983H190.295C190.152 15.7843 189.793 15.098 189.363 14.6646C188.61 13.9061 187.57 13.7977 186.996 13.7977C186.028 13.7977 185.275 14.0506 184.665 14.6646C184.271 15.098 183.912 15.676 183.805 16.3983Z" fill="#2A2B30"/>
<path d="M198.88 26.7286V10.5831H204.617V13.2198C205.191 12.1362 206.016 11.4138 206.876 10.9804C207.737 10.5108 208.777 10.3302 209.853 10.3302C209.996 10.3302 210.247 10.3664 211 10.4025V15.8566C210.713 15.7121 209.924 15.2786 208.526 15.2786C207.773 15.2786 206.733 15.387 205.908 16.1455C204.689 17.2652 204.617 18.9628 204.617 19.8297V26.7286H198.88Z" fill="#2A2B30"/>
</svg>
