<svg width="85" height="56" viewBox="0 0 85 56" fill="none" xmlns="http://www.w3.org/2000/svg">
<g clip-path="url(#clip0_1626_10125)">
<path d="M40.4142 0H84.9998C84.9998 0 84.6526 13.2293 69.5828 13.2293H41.184C36.3637 13.2293 36.3637 21.1217 41.184 21.1217H67.8469C90.7208 21.1217 90.7208 55.9799 67.8469 55.9799H20.7253C11.0594 56.1054 3.98993 55.6285 0.165859 54.775C-0.060566 54.7248 -0.0555344 54.4034 0.170891 54.3583C6.47557 53.1382 17.2987 52.9475 28.1772 53.068C34.0944 53.2487 39.6393 53.1182 42.613 52.2345C42.8193 52.1743 42.8143 51.8881 42.608 51.8279C40.1727 51.13 35.1309 50.8338 29.7823 50.6832C36.5901 50.5476 43.5389 50.3518 46.7239 49.5134C46.9352 49.4581 46.9352 49.1519 46.7239 49.1017C43.5892 48.3185 38.004 48.1026 32.5145 47.977C24.9972 48.0122 17.7817 47.7712 13.6608 46.7872C13.4394 46.7319 13.4444 46.4156 13.6709 46.3654C17.8069 45.4868 24.0411 45.0651 30.7182 45.0852C30.7182 45.0852 33.3246 43.5539 38.3965 43.5539H65.2908C65.2908 43.5539 69.3212 43.1472 69.3212 38.8696C73.7138 38.8947 78.3631 38.724 81.1003 38.0613C81.3167 38.0061 81.3167 37.6948 81.1003 37.6446C77.8247 36.8815 72.0584 36.8514 66.7399 36.9367C59.6452 36.9216 52.6613 37.002 48.9932 36.1635C48.7718 36.1133 48.7768 35.797 48.9932 35.7468C51.1317 35.2648 55.5444 35.1343 59.5245 35.049H37.6367C37.6367 35.049 31.2867 35.4255 25.6815 27.995C39.589 28.0954 53.3406 28.0853 58.4578 26.7499C58.6691 26.6946 58.6741 26.3934 58.4628 26.3332C55.5293 25.5148 49.8586 25.2537 44.032 25.1583L23.6436 25.2889C16.3527 25.2336 10.204 24.832 5.61516 23.9735C5.3837 23.9283 5.3837 23.6019 5.61516 23.5567C10.2845 22.6279 16.3829 22.3116 23.0952 22.2514C23.0952 22.2514 22.436 21.1017 22.4461 19.0834C19.9504 19.0633 17.4094 18.5914 14.8382 17.778C14.6369 17.7127 14.6369 17.4366 14.8332 17.3663C17.3591 16.5078 19.9152 16.1262 22.4914 16.2367C23.1354 11.8738 24.7053 9.27811 26.8941 6.1101C17.9377 5.96952 10.2443 5.59799 5.96234 4.84992C5.72586 4.80975 5.72586 4.47337 5.96234 4.42819C13.2885 3.07764 21.4096 2.82159 29.5005 3.05756L40.062 3.02743C49.2951 2.97221 57.2049 2.6057 61.1547 1.70199C61.3761 1.65178 61.3812 1.34051 61.1648 1.28528C57.7332 0.421732 49.0435 0.175722 40.4142 0Z" fill="white"/>
</g>
<defs>
<clipPath id="clip0_1626_10125">
<rect width="85" height="56" fill="white"/>
</clipPath>
</defs>
</svg>
