<svg width="85" height="56" viewBox="0 0 85 56" fill="none" xmlns="http://www.w3.org/2000/svg">
<g clip-path="url(#clip0_3501_18075)">
<path d="M40.4141 0H84.9997C84.9997 0 84.6525 13.2293 69.5827 13.2293H41.1839C36.3636 13.2293 36.3636 21.1217 41.1839 21.1217H67.8467C90.7207 21.1217 90.7207 55.9799 67.8467 55.9799H20.7251C11.0593 56.1054 3.98979 55.6285 0.165722 54.775C-0.0607033 54.7248 -0.0556717 54.4034 0.170754 54.3583C6.47544 53.1382 17.2986 52.9475 28.177 53.068C34.0943 53.2487 39.6392 53.1182 42.6129 52.2345C42.8192 52.1743 42.8142 51.8881 42.6079 51.8279C40.1725 51.13 35.1308 50.8338 29.7821 50.6832C36.59 50.5476 43.5387 50.3518 46.7238 49.5134C46.9351 49.4581 46.9351 49.1519 46.7238 49.1017C43.589 48.3185 38.0039 48.1026 32.5143 47.977C24.997 48.0122 17.7816 47.7712 13.6607 46.7872C13.4393 46.7319 13.4443 46.4156 13.6707 46.3654C17.8068 45.4868 24.041 45.0651 30.718 45.0852C30.718 45.0852 33.3244 43.5539 38.3964 43.5539H65.2906C65.2906 43.5539 69.321 43.1472 69.321 38.8696C73.7137 38.8947 78.3629 38.724 81.1002 38.0613C81.3165 38.0061 81.3165 37.6948 81.1002 37.6446C77.8245 36.8815 72.0582 36.8514 66.7398 36.9367C59.6451 36.9216 52.6611 37.002 48.9931 36.1635C48.7717 36.1133 48.7767 35.797 48.9931 35.7468C51.1315 35.2648 55.5443 35.1343 59.5243 35.049H37.6366C37.6366 35.049 31.2866 35.4255 25.6813 27.995C39.5889 28.0954 53.3404 28.0853 58.4576 26.7499C58.669 26.6946 58.674 26.3934 58.4627 26.3332C55.5292 25.5148 49.8585 25.2537 44.0318 25.1583L23.6435 25.2889C16.3526 25.2336 10.2039 24.832 5.61502 23.9735C5.38356 23.9283 5.38356 23.6019 5.61502 23.5567C10.2844 22.6279 16.3828 22.3116 23.095 22.2514C23.095 22.2514 22.4359 21.1017 22.446 19.0834C19.9503 19.0633 17.4093 18.5914 14.8381 17.778C14.6368 17.7127 14.6368 17.4366 14.833 17.3663C17.3589 16.5078 19.915 16.1262 22.4912 16.2367C23.1353 11.8738 24.7052 9.27811 26.894 6.1101C17.9376 5.96952 10.2442 5.59799 5.96221 4.84992C5.72572 4.80975 5.72572 4.47337 5.96221 4.42819C13.2883 3.07764 21.4094 2.82159 29.5004 3.05756L40.0618 3.02743C49.295 2.97221 57.2047 2.6057 61.1546 1.70199C61.376 1.65178 61.381 1.34051 61.1647 1.28528C57.7331 0.421732 49.0434 0.175722 40.4141 0Z" fill="#2A2B30"/>
</g>
<defs>
<clipPath id="clip0_3501_18075">
<rect width="85" height="56" fill="white"/>
</clipPath>
</defs>
</svg>
