<svg width="39" height="39" viewBox="0 0 39 39" fill="none" xmlns="http://www.w3.org/2000/svg">
<path fill-rule="evenodd" clip-rule="evenodd" d="M39 19.5C39 30.2696 30.2696 39 19.5 39C8.73045 39 0 30.2696 0 19.5C0 8.73045 8.73045 0 19.5 0C30.2696 0 39 8.73045 39 19.5ZM20.1988 14.3958C18.3021 15.1847 14.5115 16.8174 8.82681 19.2942C7.90371 19.6612 7.42015 20.0204 7.37613 20.3715C7.30173 20.9649 8.04489 21.1986 9.05688 21.5168C9.19453 21.5601 9.33716 21.605 9.48338 21.6525C10.479 21.9761 11.8183 22.3548 12.5146 22.3698C13.1461 22.3835 13.851 22.1231 14.6293 21.5887C19.9406 18.0034 22.6823 16.1912 22.8545 16.1521C22.9759 16.1246 23.1442 16.0899 23.2582 16.1913C23.3722 16.2926 23.361 16.4845 23.349 16.536C23.2753 16.8499 20.3582 19.5619 18.8485 20.9654C18.3779 21.4029 18.0441 21.7133 17.9759 21.7842C17.823 21.943 17.6672 22.0931 17.5174 22.2375C16.5925 23.1292 15.8988 23.7978 17.5559 24.8898C18.3521 25.4145 18.9893 25.8485 19.625 26.2814C20.3193 26.7542 21.0117 27.2257 21.9076 27.813C22.1359 27.9626 22.3538 28.118 22.5662 28.2694C23.3741 28.8454 24.0999 29.3628 24.9967 29.2803C25.5177 29.2324 26.056 28.7424 26.3293 27.2811C26.9753 23.8276 28.2451 16.345 28.5386 13.2616C28.5643 12.9914 28.532 12.6457 28.506 12.4939C28.48 12.3422 28.4257 12.1259 28.2284 11.9659C27.9948 11.7763 27.6341 11.7363 27.4728 11.739C26.7394 11.7521 25.6141 12.1433 20.1988 14.3958Z" fill="white"/>
</svg>
