<svg width="39" height="39" viewBox="0 0 39 39" fill="none" xmlns="http://www.w3.org/2000/svg">
<path fill-rule="evenodd" clip-rule="evenodd" d="M2.73 2.73C0 5.486 0 9.893 0 18.72V20.28C0 29.094 0 33.501 2.73 36.27C5.486 39 9.893 39 18.72 39H20.28C29.094 39 33.501 39 36.27 36.27C39 33.514 39 29.107 39 20.28V18.72C39 9.906 39 5.499 36.27 2.73C33.514 0 29.107 0 20.28 0H18.72C9.906 0 5.499 0 2.73 2.73ZM6.578 11.869C6.786 22.009 11.856 28.093 20.748 28.093H21.268V22.295C24.531 22.62 27.001 25.012 27.989 28.093H32.604C32.1307 26.3423 31.2915 24.7117 30.142 23.309C28.9925 21.9062 27.5586 20.7631 25.935 19.955C27.3899 19.069 28.6465 17.8925 29.6262 16.499C30.6059 15.1055 31.2877 13.5249 31.629 11.856H27.443C26.533 15.08 23.829 18.005 21.268 18.278V11.869H17.069V23.101C14.469 22.451 11.193 19.305 11.05 11.869H6.578Z" fill="#F2F3F8"/>
</svg>
