<svg width="44" height="44" viewBox="0 0 44 44" fill="none" xmlns="http://www.w3.org/2000/svg">
<path fill-rule="evenodd" clip-rule="evenodd" d="M3.08 3.08C0 6.18933 0 11.1613 0 21.12V22.88C0 32.824 0 37.796 3.08 40.92C6.18933 44 11.1613 44 21.12 44H22.88C32.824 44 37.796 44 40.92 40.92C44 37.8107 44 32.8387 44 22.88V21.12C44 11.176 44 6.204 40.92 3.08C37.8107 0 32.8387 0 22.88 0H21.12C11.176 0 6.204 0 3.08 3.08ZM7.42133 13.3907C7.65599 24.8307 13.376 31.6947 23.408 31.6947H23.9947V25.1533C27.676 25.52 30.4627 28.2187 31.5773 31.6947H36.784C36.25 29.7195 35.3033 27.8799 34.0064 26.2973C32.7094 24.7147 31.0918 23.4251 29.26 22.5133C30.9014 21.5138 32.3191 20.1864 33.4244 18.6143C34.5297 17.0421 35.2989 15.2589 35.684 13.376H30.9613C29.9347 17.0133 26.884 20.3133 23.9947 20.6213V13.3907H19.2573V26.0627C16.324 25.3293 12.628 21.78 12.4667 13.3907H7.42133Z" fill="white"/>
</svg>
